<svg width="220" height="110" viewBox="0 0 220 110" fill="none" xmlns="http://www.w3.org/2000/svg">
<path d="M93.097 78.7452L83.3107 42.4492L73.4005 78.7452C72.6298 81.498 72.0104 83.48 71.5424 84.6913C71.1019 85.875 70.3174 86.9486 69.1887 87.9121C68.0601 88.848 66.5598 89.316 64.6879 89.316C63.1738 89.316 61.9213 89.027 60.9303 88.4489C59.9668 87.8983 59.1822 87.1137 58.5766 86.0952C57.971 85.0491 57.4755 83.8241 57.0901 82.4202C56.7047 80.9887 56.3606 79.6674 56.0578 78.4561L45.9824 37.7006C45.3768 35.3332 45.074 33.5301 45.074 32.2913C45.074 30.7222 45.6246 29.4008 46.7257 28.3272C47.8268 27.2536 49.1895 26.7168 50.8136 26.7168C53.0434 26.7168 54.5437 27.4326 55.3145 28.864C56.0853 30.2955 56.7597 32.3739 57.3378 35.0992L65.266 70.4454L74.1438 37.3703C74.8045 34.8377 75.3963 32.9107 75.9194 31.5893C76.4424 30.268 77.2958 29.1256 78.4795 28.1621C79.6632 27.1986 81.2736 26.7168 83.3107 26.7168C85.3753 26.7168 86.972 27.2261 88.1006 28.2447C89.2568 29.2357 90.0551 30.323 90.4956 31.5068C90.936 32.6905 91.5279 34.645 92.2711 37.3703L101.232 70.4454L109.16 35.0992C109.545 33.2548 109.903 31.8096 110.233 30.7635C110.591 29.7174 111.183 28.7815 112.009 27.9556C112.862 27.1298 114.087 26.7168 115.684 26.7168C117.281 26.7168 118.629 27.2536 119.731 28.3272C120.859 29.3733 121.424 30.6947 121.424 32.2913C121.424 33.42 121.121 35.2231 120.515 37.7006L110.44 78.4561C109.752 81.2089 109.173 83.2323 108.705 84.5261C108.265 85.7924 107.494 86.9073 106.393 87.8708C105.32 88.8343 103.792 89.316 101.81 89.316C99.9377 89.316 98.4375 88.848 97.3088 87.9121C96.1801 86.9761 95.3956 85.93 94.9551 84.7738C94.5147 83.5901 93.8953 81.5806 93.097 78.7452ZM141.615 34.1495V78.2084H166.473C168.455 78.2084 169.97 78.6901 171.016 79.6536C172.089 80.6171 172.626 81.8283 172.626 83.2873C172.626 84.7738 172.103 85.9851 171.057 86.921C170.011 87.8295 168.483 88.2837 166.473 88.2837H136.867C134.197 88.2837 132.27 87.6918 131.086 86.5081C129.93 85.3244 129.352 83.4112 129.352 80.7685V34.1495C129.352 31.6719 129.902 29.8138 131.003 28.575C132.132 27.3362 133.605 26.7168 135.422 26.7168C137.266 26.7168 138.753 27.3362 139.881 28.575C141.037 29.7862 141.615 31.6444 141.615 34.1495Z" fill="white"/>
<path d="M14.5349 58.1151C16.4894 59.3263 18.0172 60.689 19.1183 62.203C20.2195 63.6895 20.9903 65.6027 21.4307 67.9426C21.8712 70.255 22.0914 73.2281 22.0914 76.8618C22.0914 79.5871 22.1464 81.5966 22.2566 82.8905C22.3942 84.1843 22.642 85.1615 22.9998 85.8222C23.3852 86.5104 23.8394 86.9509 24.3625 87.1436C24.8855 87.3638 25.7802 87.5703 27.0465 87.763C28.0925 87.9006 28.9597 88.4099 29.6479 89.2908C30.3361 90.1717 30.6802 91.3279 30.6802 92.7593C30.6802 96.0902 28.6569 97.7557 24.6102 97.7557C22.1052 97.7557 19.8616 97.2327 17.8796 96.1866C15.9251 95.1405 14.411 93.654 13.3374 91.727C12.2638 89.8276 11.7133 87.6391 11.6857 85.1615C11.6031 80.9773 11.5206 77.6188 11.438 75.0862C11.3554 72.5536 11.2315 70.9157 11.0663 70.1724C10.6534 68.328 10.034 66.9379 9.20819 66.0019C8.40987 65.0659 7.35003 64.1988 6.02868 63.4005C4.73485 62.5746 3.81266 61.8451 3.26209 61.212C2.71153 60.5513 2.43625 59.519 2.43625 58.1151C2.43625 56.078 3.23457 54.5502 4.8312 53.5316C6.81323 52.2929 8.21717 51.2468 9.04302 50.3934C9.89639 49.5125 10.4882 48.3976 10.8186 47.0487C11.1765 45.6723 11.3829 44.1858 11.438 42.5892C11.493 40.965 11.5756 37.0835 11.6857 30.9447C11.7683 27.1458 12.9658 24.1177 15.2782 21.8604C17.6181 19.5756 20.7287 18.4331 24.6102 18.4331C28.6569 18.4331 30.6802 20.0711 30.6802 23.3469C30.6802 24.8335 30.3361 26.0034 29.6479 26.8568C28.9872 27.7102 28.1201 28.2057 27.0465 28.3433C25.4498 28.5635 24.3349 28.8939 23.7018 29.3343C23.0686 29.7748 22.6557 30.6281 22.463 31.8944C22.2703 33.1607 22.1464 35.6108 22.0914 39.2445C22.0363 42.7956 21.8161 45.7136 21.4307 47.9985C21.0728 50.2558 20.3434 52.1827 19.2422 53.7794C18.1686 55.376 16.5995 56.8212 14.5349 58.1151Z" fill="url(#paint0_linear_13_684)"/>
<path d="M204.361 60.1151C202.406 61.3263 200.879 62.689 199.778 64.203C198.676 65.6895 197.906 67.6027 197.465 69.9426C197.025 72.255 196.804 75.2281 196.804 78.8618C196.804 81.5871 196.749 83.5966 196.639 84.8905C196.502 86.1843 196.254 87.1615 195.896 87.8222C195.511 88.5104 195.056 88.9509 194.533 89.1436C194.01 89.3638 193.116 89.5703 191.849 89.763C190.803 89.9006 189.936 90.4099 189.248 91.2908C188.56 92.1717 188.216 93.3279 188.216 94.7593C188.216 98.0902 190.239 99.7557 194.286 99.7557C196.791 99.7557 199.034 99.2327 201.016 98.1866C202.971 97.1405 204.485 95.654 205.558 93.727C206.632 91.8276 207.183 89.6391 207.21 87.1615C207.293 82.9773 207.375 79.6188 207.458 77.0862C207.54 74.5536 207.664 72.9157 207.83 72.1724C208.242 70.328 208.862 68.9379 209.688 68.0019C210.486 67.0659 211.546 66.1988 212.867 65.4005C214.161 64.5746 215.083 63.8451 215.634 63.212C216.184 62.5513 216.46 61.519 216.46 60.1151C216.46 58.078 215.661 56.5502 214.065 55.5316C212.083 54.2929 210.679 53.2468 209.853 52.3934C208.999 51.5125 208.408 50.3976 208.077 49.0487C207.719 47.6723 207.513 46.1858 207.458 44.5892C207.403 42.965 207.32 39.0835 207.21 32.9447C207.128 29.1458 205.93 26.1177 203.618 23.8604C201.278 21.5756 198.167 20.4331 194.286 20.4331C190.239 20.4331 188.216 22.0711 188.216 25.3469C188.216 26.8335 188.56 28.0034 189.248 28.8568C189.909 29.7102 190.776 30.2057 191.849 30.3433C193.446 30.5635 194.561 30.8939 195.194 31.3343C195.827 31.7748 196.24 32.6281 196.433 33.8944C196.626 35.1607 196.749 37.6108 196.804 41.2445C196.86 44.7956 197.08 47.7136 197.465 49.9985C197.823 52.2558 198.552 54.1827 199.654 55.7794C200.727 57.376 202.296 58.8212 204.361 60.1151Z" fill="url(#paint1_linear_13_684)"/>
<defs>
<linearGradient id="paint0_linear_13_684" x1="23.2351" y1="-96.6763" x2="-18.7015" y2="-89.5363" gradientUnits="userSpaceOnUse">
<stop stop-color="#2412EE"/>
<stop offset="1" stop-color="#ED1DF1"/>
</linearGradient>
<linearGradient id="paint1_linear_13_684" x1="196.765" y1="-96.6763" x2="238.702" y2="-89.5363" gradientUnits="userSpaceOnUse">
<stop stop-color="#2412EE"/>
<stop offset="1" stop-color="#ED1DF1"/>
</linearGradient>
</defs>
</svg>
